<svg xmlns="http://www.w3.org/2000/svg" viewBox="0 0 32 32" width="100%" height="100%">
  <defs>
    <!-- Mask to create a clean negative-space gap around the foreground magnifier -->
    <mask id="magnifier-cutout">
      <rect width="100%" height="100%" fill="white" />
      <!-- Gap around the glass -->
      <circle cx="22" cy="22" r="8" fill="black" />
      <!-- Gap around the handle -->
      <rect x="23.5" y="21.5" width="8" height="12" rx="4" transform="rotate(-45 27.5 27.5)" fill="black" />
    </mask>
  </defs>

  <g fill="currentColor">
    <!-- Background Elements (Case and Contents) -->
    <g mask="url(#magnifier-cutout)">
      <!-- Case Outer Shell (with hollow center) -->
      <path fill-rule="evenodd" d="M 5 9 C 3.895 9 3 9.895 3 11 L 3 27 C 3 28.105 3.895 29 5 29 L 27 29 C 28.105 29 29 28.105 29 27 L 29 11 C 29 9.895 28.105 9 27 9 L 5 9 z M 5 11 L 27 11 L 27 27 L 5 27 L 5 11 z" />

      <!-- Top Handle -->
      <path d="M 13 4 C 11.895 4 11 4.895 11 6 L 11 9 L 13 9 L 13 6 L 19 6 L 19 9 L 21 9 L 21 6 C 21 4.895 20.105 4 19 4 L 13 4 z" />

      <!-- Horizontal Case Divider -->
      <path d="M 5 16 h 22 v 2 H 5 z" />

      <!-- Document / ID Card -->
      <path fill-rule="evenodd" d="M 19 11 h 7 v 7 h -7 z m 2 2 v 3 h 3 v -3 h -3 z" />

      <!-- Large Gear (Bottom Left) -->
      <!-- Gear Ring -->
      <path fill-rule="evenodd" d="M 11 17 a 4 4 0 1 0 0 8 a 4 4 0 0 0 0 -8 z m 0 2 a 2 2 0 1 1 0 4 a 2 2 0 0 1 0 -4 z" />
      <!-- Gear Teeth -->
      <path d="M 10 15 h 2 v 3 h -2 z M 10 24 h 2 v 3 h -2 z M 5 20 h 3 v 2 H 5 z M 14 20 h 3 v 2 h -3 z" />

      <!-- Small Gear (Top Center) -->
      <!-- Gear Ring -->
      <path fill-rule="evenodd" d="M 15 11 a 2 2 0 1 0 0 4 a 2 2 0 0 0 0 -4 z m 0 1 a 1 1 0 1 1 0 2 a 1 1 0 0 1 0 -2 z" />
      <!-- Gear Teeth -->
      <path d="M 14 10 h 2 v 2 h -2 z M 14 14 h 2 v 2 h -2 z M 12 12 h 2 v 2 h -2 z M 16 12 h 2 v 2 h -2 z" />
    </g>

    <!-- Foreground Element (Magnifying Glass) -->
    <!-- Glass Ring -->
    <path fill-rule="evenodd" d="M 22 16 a 6 6 0 1 0 0 12 a 6 6 0 0 0 0 -12 z m 0 2 a 4 4 0 1 1 0 8 a 4 4 0 0 1 0 -8 z" />
    <!-- Handle -->
    <rect x="25.5" y="23.5" width="4" height="8" rx="2" transform="rotate(-45 27.5 27.5)" />
  </g>
</svg>
